<?xml version="1.0" encoding="UTF-8" standalone="no"?>
<!DOCTYPE svg PUBLIC "-//W3C//DTD SVG 1.1//EN"
 "http://www.w3.org/Graphics/SVG/1.1/DTD/svg11.dtd">
<!-- Generated by graphviz version 2.38.0 (20140413.2041)
 -->
<!-- Title: models_diagram Pages: 1 -->
<svg width="1306pt" height="344pt"
 viewBox="0.00 0.00 1306.19 344.00" xmlns="http://www.w3.org/2000/svg" xmlns:xlink="http://www.w3.org/1999/xlink">
<g id="graph0" class="graph" transform="scale(1 1) rotate(0) translate(4 340)">
<title>models_diagram</title>
<polygon fill="none" stroke="none" points="-4,4 -4,-340 1302.19,-340 1302.19,4 -4,4"/>
<!-- _diagram_info -->
<g id="node1" class="node"><title>_diagram_info</title>
<text text-anchor="start" x="8" y="-258.6" font-family="Times,serif" font-size="13.00">Models diagram</text>
<text text-anchor="start" x="8" y="-245.6" font-family="Times,serif" font-size="13.00">Date: Jan 23 2018 &#45; 12:50</text>
<text text-anchor="start" x="8" y="-232.6" font-family="Times,serif" font-size="13.00">Migration version: 20180123174359</text>
<text text-anchor="start" x="8" y="-219.6" font-family="Times,serif" font-size="13.00">Generated by RailRoady 1.5.3</text>
<text text-anchor="start" x="8" y="-206.6" font-family="Times,serif" font-size="13.00">http://railroady.prestonlee.com</text>
</g>
<!-- Match -->
<g id="node2" class="node"><title>Match</title>
<path fill="none" stroke="black" d="M236.958,-137.5C236.958,-137.5 358.417,-137.5 358.417,-137.5 364.417,-137.5 370.417,-143.5 370.417,-149.5 370.417,-149.5 370.417,-323.5 370.417,-323.5 370.417,-329.5 364.417,-335.5 358.417,-335.5 358.417,-335.5 236.958,-335.5 236.958,-335.5 230.958,-335.5 224.958,-329.5 224.958,-323.5 224.958,-323.5 224.958,-149.5 224.958,-149.5 224.958,-143.5 230.958,-137.5 236.958,-137.5"/>
<text text-anchor="middle" x="297.688" y="-320.3" font-family="Times,serif" font-size="14.00">Match</text>
<polyline fill="none" stroke="black" points="224.958,-313.5 370.417,-313.5 "/>
<text text-anchor="start" x="232.958" y="-298.3" font-family="Times,serif" font-size="14.00">updated_at :datetime</text>
<text text-anchor="start" x="232.958" y="-284.3" font-family="Times,serif" font-size="14.00">name :integer</text>
<text text-anchor="start" x="232.958" y="-270.3" font-family="Times,serif" font-size="14.00">match_type_id :integer</text>
<text text-anchor="start" x="232.958" y="-256.3" font-family="Times,serif" font-size="14.00">home_team_id :integer</text>
<text text-anchor="start" x="232.958" y="-242.3" font-family="Times,serif" font-size="14.00">away_team_id :integer</text>
<text text-anchor="start" x="232.958" y="-228.3" font-family="Times,serif" font-size="14.00">date :datetime</text>
<text text-anchor="start" x="232.958" y="-214.3" font-family="Times,serif" font-size="14.00">home_result :integer</text>
<text text-anchor="start" x="232.958" y="-200.3" font-family="Times,serif" font-size="14.00">away_result :integer</text>
<text text-anchor="start" x="232.958" y="-186.3" font-family="Times,serif" font-size="14.00">stadium_id :integer</text>
<text text-anchor="start" x="232.958" y="-172.3" font-family="Times,serif" font-size="14.00">finished :boolean</text>
<text text-anchor="start" x="232.958" y="-158.3" font-family="Times,serif" font-size="14.00">created_at :datetime</text>
<text text-anchor="start" x="232.958" y="-144.3" font-family="Times,serif" font-size="14.00">id :INTEGER</text>
</g>
<!-- MatchType -->
<g id="node3" class="node"><title>MatchType</title>
<path fill="none" stroke="black" d="M400.182,-193.5C400.182,-193.5 509.193,-193.5 509.193,-193.5 515.193,-193.5 521.193,-199.5 521.193,-205.5 521.193,-205.5 521.193,-267.5 521.193,-267.5 521.193,-273.5 515.193,-279.5 509.193,-279.5 509.193,-279.5 400.182,-279.5 400.182,-279.5 394.182,-279.5 388.182,-273.5 388.182,-267.5 388.182,-267.5 388.182,-205.5 388.182,-205.5 388.182,-199.5 394.182,-193.5 400.182,-193.5"/>
<text text-anchor="middle" x="454.688" y="-264.3" font-family="Times,serif" font-size="14.00">MatchType</text>
<polyline fill="none" stroke="black" points="388.182,-257.5 521.193,-257.5 "/>
<text text-anchor="start" x="396.182" y="-242.3" font-family="Times,serif" font-size="14.00">id :INTEGER</text>
<text text-anchor="start" x="396.182" y="-228.3" font-family="Times,serif" font-size="14.00">name :varchar</text>
<text text-anchor="start" x="396.182" y="-214.3" font-family="Times,serif" font-size="14.00">created_at :datetime</text>
<text text-anchor="start" x="396.182" y="-200.3" font-family="Times,serif" font-size="14.00">updated_at :datetime</text>
</g>
<!-- Group -->
<g id="node4" class="node"><title>Group</title>
<path fill="none" stroke="black" d="M551.182,-193.5C551.182,-193.5 660.193,-193.5 660.193,-193.5 666.193,-193.5 672.193,-199.5 672.193,-205.5 672.193,-205.5 672.193,-267.5 672.193,-267.5 672.193,-273.5 666.193,-279.5 660.193,-279.5 660.193,-279.5 551.182,-279.5 551.182,-279.5 545.182,-279.5 539.182,-273.5 539.182,-267.5 539.182,-267.5 539.182,-205.5 539.182,-205.5 539.182,-199.5 545.182,-193.5 551.182,-193.5"/>
<text text-anchor="middle" x="605.688" y="-264.3" font-family="Times,serif" font-size="14.00">Group</text>
<polyline fill="none" stroke="black" points="539.182,-257.5 672.193,-257.5 "/>
<text text-anchor="start" x="547.182" y="-242.3" font-family="Times,serif" font-size="14.00">id :INTEGER</text>
<text text-anchor="start" x="547.182" y="-228.3" font-family="Times,serif" font-size="14.00">name :varchar</text>
<text text-anchor="start" x="547.182" y="-214.3" font-family="Times,serif" font-size="14.00">created_at :datetime</text>
<text text-anchor="start" x="547.182" y="-200.3" font-family="Times,serif" font-size="14.00">updated_at :datetime</text>
</g>
<!-- GameSubType -->
<g id="node5" class="node"><title>GameSubType</title>
<path fill="none" stroke="black" d="M697.903,-0.5C697.903,-0.5 815.472,-0.5 815.472,-0.5 821.472,-0.5 827.472,-6.5 827.472,-12.5 827.472,-12.5 827.472,-88.5 827.472,-88.5 827.472,-94.5 821.472,-100.5 815.472,-100.5 815.472,-100.5 697.903,-100.5 697.903,-100.5 691.903,-100.5 685.903,-94.5 685.903,-88.5 685.903,-88.5 685.903,-12.5 685.903,-12.5 685.903,-6.5 691.903,-0.5 697.903,-0.5"/>
<text text-anchor="middle" x="756.688" y="-85.3" font-family="Times,serif" font-size="14.00">GameSubType</text>
<polyline fill="none" stroke="black" points="685.903,-78.5 827.472,-78.5 "/>
<text text-anchor="start" x="693.903" y="-63.3" font-family="Times,serif" font-size="14.00">id :INTEGER</text>
<text text-anchor="start" x="693.903" y="-49.3" font-family="Times,serif" font-size="14.00">name :varchar</text>
<text text-anchor="start" x="693.903" y="-35.3" font-family="Times,serif" font-size="14.00">game_type_id :integer</text>
<text text-anchor="start" x="693.903" y="-21.3" font-family="Times,serif" font-size="14.00">created_at :datetime</text>
<text text-anchor="start" x="693.903" y="-7.3" font-family="Times,serif" font-size="14.00">updated_at :datetime</text>
</g>
<!-- Team -->
<g id="node6" class="node"><title>Team</title>
<path fill="none" stroke="black" d="M853.182,-186.5C853.182,-186.5 962.193,-186.5 962.193,-186.5 968.193,-186.5 974.193,-192.5 974.193,-198.5 974.193,-198.5 974.193,-274.5 974.193,-274.5 974.193,-280.5 968.193,-286.5 962.193,-286.5 962.193,-286.5 853.182,-286.5 853.182,-286.5 847.182,-286.5 841.182,-280.5 841.182,-274.5 841.182,-274.5 841.182,-198.5 841.182,-198.5 841.182,-192.5 847.182,-186.5 853.182,-186.5"/>
<text text-anchor="middle" x="907.688" y="-271.3" font-family="Times,serif" font-size="14.00">Team</text>
<polyline fill="none" stroke="black" points="841.182,-264.5 974.193,-264.5 "/>
<text text-anchor="start" x="849.182" y="-249.3" font-family="Times,serif" font-size="14.00">id :INTEGER</text>
<text text-anchor="start" x="849.182" y="-235.3" font-family="Times,serif" font-size="14.00">name :varchar</text>
<text text-anchor="start" x="849.182" y="-221.3" font-family="Times,serif" font-size="14.00">iso2 :varchar</text>
<text text-anchor="start" x="849.182" y="-207.3" font-family="Times,serif" font-size="14.00">created_at :datetime</text>
<text text-anchor="start" x="849.182" y="-193.3" font-family="Times,serif" font-size="14.00">updated_at :datetime</text>
</g>
<!-- GameType -->
<g id="node7" class="node"><title>GameType</title>
<path fill="none" stroke="black" d="M702.182,-193.5C702.182,-193.5 811.193,-193.5 811.193,-193.5 817.193,-193.5 823.193,-199.5 823.193,-205.5 823.193,-205.5 823.193,-267.5 823.193,-267.5 823.193,-273.5 817.193,-279.5 811.193,-279.5 811.193,-279.5 702.182,-279.5 702.182,-279.5 696.182,-279.5 690.182,-273.5 690.182,-267.5 690.182,-267.5 690.182,-205.5 690.182,-205.5 690.182,-199.5 696.182,-193.5 702.182,-193.5"/>
<text text-anchor="middle" x="756.688" y="-264.3" font-family="Times,serif" font-size="14.00">GameType</text>
<polyline fill="none" stroke="black" points="690.182,-257.5 823.193,-257.5 "/>
<text text-anchor="start" x="698.182" y="-242.3" font-family="Times,serif" font-size="14.00">id :INTEGER</text>
<text text-anchor="start" x="698.182" y="-228.3" font-family="Times,serif" font-size="14.00">name :varchar</text>
<text text-anchor="start" x="698.182" y="-214.3" font-family="Times,serif" font-size="14.00">created_at :datetime</text>
<text text-anchor="start" x="698.182" y="-200.3" font-family="Times,serif" font-size="14.00">updated_at :datetime</text>
</g>
<!-- GameType&#45;&gt;GameSubType -->
<g id="edge1" class="edge"><title>GameType&#45;&gt;GameSubType</title>
<path fill="none" stroke="#88e19e" d="M756.688,-184.975C756.688,-161.996 756.688,-134.65 756.688,-110.712"/>
<ellipse fill="none" stroke="#88e19e" cx="756.688" cy="-189.287" rx="4" ry="4"/>
<polygon fill="#88e19e" stroke="#88e19e" points="756.688,-110.684 761.188,-100.684 756.688,-105.684 756.688,-100.684 756.688,-100.684 756.688,-100.684 756.688,-105.684 752.188,-100.684 756.688,-110.684 756.688,-110.684"/>
</g>
<!-- ApplicationRecord -->
<g id="node8" class="node"><title>ApplicationRecord</title>
<ellipse fill="none" stroke="black" cx="1069.69" cy="-236.5" rx="77.2916" ry="18"/>
<text text-anchor="middle" x="1069.69" y="-232.3" font-family="Times,serif" font-size="14.00">ApplicationRecord</text>
</g>
<!-- Stadium -->
<g id="node9" class="node"><title>Stadium</title>
<path fill="none" stroke="black" d="M1177.18,-186.5C1177.18,-186.5 1286.19,-186.5 1286.19,-186.5 1292.19,-186.5 1298.19,-192.5 1298.19,-198.5 1298.19,-198.5 1298.19,-274.5 1298.19,-274.5 1298.19,-280.5 1292.19,-286.5 1286.19,-286.5 1286.19,-286.5 1177.18,-286.5 1177.18,-286.5 1171.18,-286.5 1165.18,-280.5 1165.18,-274.5 1165.18,-274.5 1165.18,-198.5 1165.18,-198.5 1165.18,-192.5 1171.18,-186.5 1177.18,-186.5"/>
<text text-anchor="middle" x="1231.69" y="-271.3" font-family="Times,serif" font-size="14.00">Stadium</text>
<polyline fill="none" stroke="black" points="1165.18,-264.5 1298.19,-264.5 "/>
<text text-anchor="start" x="1173.18" y="-249.3" font-family="Times,serif" font-size="14.00">id :INTEGER</text>
<text text-anchor="start" x="1173.18" y="-235.3" font-family="Times,serif" font-size="14.00">name :varchar</text>
<text text-anchor="start" x="1173.18" y="-221.3" font-family="Times,serif" font-size="14.00">city :varchar</text>
<text text-anchor="start" x="1173.18" y="-207.3" font-family="Times,serif" font-size="14.00">created_at :datetime</text>
<text text-anchor="start" x="1173.18" y="-193.3" font-family="Times,serif" font-size="14.00">updated_at :datetime</text>
</g>
</g>
</svg>
