<?xml version="1.0" encoding="UTF-8" standalone="no"?>
<!DOCTYPE svg PUBLIC "-//W3C//DTD SVG 1.1//EN"
 "http://www.w3.org/Graphics/SVG/1.1/DTD/svg11.dtd">
<!-- Generated by graphviz version 2.38.0 (20140413.2041)
 -->
<!-- Title: models_diagram Pages: 1 -->
<svg width="672pt" height="482pt"
 viewBox="0.00 0.00 672.19 482.00" xmlns="http://www.w3.org/2000/svg" xmlns:xlink="http://www.w3.org/1999/xlink">
<g id="graph0" class="graph" transform="scale(1 1) rotate(0) translate(4 478)">
<title>models_diagram</title>
<polygon fill="none" stroke="none" points="-4,4 -4,-478 668.193,-478 668.193,4 -4,4"/>
<!-- _diagram_info -->
<g id="node1" class="node"><title>_diagram_info</title>
<text text-anchor="start" x="8" y="-452.6" font-family="Times,serif" font-size="13.00">Models diagram</text>
<text text-anchor="start" x="8" y="-439.6" font-family="Times,serif" font-size="13.00">Date: Jan 23 2018 &#45; 17:15</text>
<text text-anchor="start" x="8" y="-426.6" font-family="Times,serif" font-size="13.00">Migration version: 20180123221230</text>
<text text-anchor="start" x="8" y="-413.6" font-family="Times,serif" font-size="13.00">Generated by RailRoady 1.5.3</text>
<text text-anchor="start" x="8" y="-400.6" font-family="Times,serif" font-size="13.00">http://railroady.prestonlee.com</text>
</g>
<!-- Match -->
<g id="node2" class="node"><title>Match</title>
<path fill="none" stroke="black" d="M348.679,-0.5C348.679,-0.5 492.697,-0.5 492.697,-0.5 498.697,-0.5 504.697,-6.5 504.697,-12.5 504.697,-12.5 504.697,-186.5 504.697,-186.5 504.697,-192.5 498.697,-198.5 492.697,-198.5 492.697,-198.5 348.679,-198.5 348.679,-198.5 342.679,-198.5 336.679,-192.5 336.679,-186.5 336.679,-186.5 336.679,-12.5 336.679,-12.5 336.679,-6.5 342.679,-0.5 348.679,-0.5"/>
<text text-anchor="middle" x="420.688" y="-183.3" font-family="Times,serif" font-size="14.00">Match</text>
<polyline fill="none" stroke="black" points="336.679,-176.5 504.697,-176.5 "/>
<text text-anchor="start" x="344.679" y="-161.3" font-family="Times,serif" font-size="14.00">game_sub_type_id :integer</text>
<text text-anchor="start" x="344.679" y="-147.3" font-family="Times,serif" font-size="14.00">name :integer</text>
<text text-anchor="start" x="344.679" y="-133.3" font-family="Times,serif" font-size="14.00">home_team_id :integer</text>
<text text-anchor="start" x="344.679" y="-119.3" font-family="Times,serif" font-size="14.00">away_team_id :integer</text>
<text text-anchor="start" x="344.679" y="-105.3" font-family="Times,serif" font-size="14.00">date :datetime</text>
<text text-anchor="start" x="344.679" y="-91.3" font-family="Times,serif" font-size="14.00">home_result :integer</text>
<text text-anchor="start" x="344.679" y="-77.3" font-family="Times,serif" font-size="14.00">away_result :integer</text>
<text text-anchor="start" x="344.679" y="-63.3" font-family="Times,serif" font-size="14.00">stadium_id :integer</text>
<text text-anchor="start" x="344.679" y="-49.3" font-family="Times,serif" font-size="14.00">finished :boolean</text>
<text text-anchor="start" x="344.679" y="-35.3" font-family="Times,serif" font-size="14.00">created_at :datetime</text>
<text text-anchor="start" x="344.679" y="-21.3" font-family="Times,serif" font-size="14.00">updated_at :datetime</text>
<text text-anchor="start" x="344.679" y="-7.3" font-family="Times,serif" font-size="14.00">id :INTEGER</text>
</g>
<!-- GameSubType -->
<g id="node3" class="node"><title>GameSubType</title>
<path fill="none" stroke="black" d="M232.903,-249.5C232.903,-249.5 350.472,-249.5 350.472,-249.5 356.472,-249.5 362.472,-255.5 362.472,-261.5 362.472,-261.5 362.472,-337.5 362.472,-337.5 362.472,-343.5 356.472,-349.5 350.472,-349.5 350.472,-349.5 232.903,-349.5 232.903,-349.5 226.903,-349.5 220.903,-343.5 220.903,-337.5 220.903,-337.5 220.903,-261.5 220.903,-261.5 220.903,-255.5 226.903,-249.5 232.903,-249.5"/>
<text text-anchor="middle" x="291.688" y="-334.3" font-family="Times,serif" font-size="14.00">GameSubType</text>
<polyline fill="none" stroke="black" points="220.903,-327.5 362.472,-327.5 "/>
<text text-anchor="start" x="228.903" y="-312.3" font-family="Times,serif" font-size="14.00">id :INTEGER</text>
<text text-anchor="start" x="228.903" y="-298.3" font-family="Times,serif" font-size="14.00">name :varchar</text>
<text text-anchor="start" x="228.903" y="-284.3" font-family="Times,serif" font-size="14.00">game_type_id :integer</text>
<text text-anchor="start" x="228.903" y="-270.3" font-family="Times,serif" font-size="14.00">created_at :datetime</text>
<text text-anchor="start" x="228.903" y="-256.3" font-family="Times,serif" font-size="14.00">updated_at :datetime</text>
</g>
<!-- GameSubType&#45;&gt;Match -->
<g id="edge1" class="edge"><title>GameSubType&#45;&gt;Match</title>
<path fill="none" stroke="#4cdb5a" d="M328.317,-242.279C335.558,-231.165 343.379,-219.16 351.299,-207.004"/>
<ellipse fill="none" stroke="#4cdb5a" cx="325.925" cy="-245.95" rx="4.00002" ry="4.00002"/>
<polygon fill="#4cdb5a" stroke="#4cdb5a" points="351.333,-206.951 360.562,-201.029 354.062,-202.762 356.792,-198.573 356.792,-198.573 356.792,-198.573 354.062,-202.762 353.022,-196.116 351.333,-206.951 351.333,-206.951"/>
</g>
<!-- Team -->
<g id="node4" class="node"><title>Team</title>
<path fill="none" stroke="black" d="M392.182,-249.5C392.182,-249.5 501.193,-249.5 501.193,-249.5 507.193,-249.5 513.193,-255.5 513.193,-261.5 513.193,-261.5 513.193,-337.5 513.193,-337.5 513.193,-343.5 507.193,-349.5 501.193,-349.5 501.193,-349.5 392.182,-349.5 392.182,-349.5 386.182,-349.5 380.182,-343.5 380.182,-337.5 380.182,-337.5 380.182,-261.5 380.182,-261.5 380.182,-255.5 386.182,-249.5 392.182,-249.5"/>
<text text-anchor="middle" x="446.688" y="-334.3" font-family="Times,serif" font-size="14.00">Team</text>
<polyline fill="none" stroke="black" points="380.182,-327.5 513.193,-327.5 "/>
<text text-anchor="start" x="388.182" y="-312.3" font-family="Times,serif" font-size="14.00">id :INTEGER</text>
<text text-anchor="start" x="388.182" y="-298.3" font-family="Times,serif" font-size="14.00">name :varchar</text>
<text text-anchor="start" x="388.182" y="-284.3" font-family="Times,serif" font-size="14.00">iso2 :varchar</text>
<text text-anchor="start" x="388.182" y="-270.3" font-family="Times,serif" font-size="14.00">created_at :datetime</text>
<text text-anchor="start" x="388.182" y="-256.3" font-family="Times,serif" font-size="14.00">updated_at :datetime</text>
</g>
<!-- Team&#45;&gt;Match -->
<g id="edge2" class="edge"><title>Team&#45;&gt;Match</title>
<path fill="none" stroke="#645081" d="M375.138,-242.763C372.602,-239.001 370.354,-235.077 368.488,-231 365.168,-223.749 363.547,-216.223 363.244,-208.61"/>
<ellipse fill="none" stroke="#645081" cx="377.624" cy="-246.139" rx="4.00002" ry="4.00002"/>
<polygon fill="#645081" stroke="#645081" points="363.245,-208.563 368.071,-198.716 363.409,-203.565 363.574,-198.568 363.574,-198.568 363.574,-198.568 363.409,-203.565 359.076,-198.42 363.245,-208.563 363.245,-208.563"/>
<text text-anchor="middle" x="409.288" y="-219.8" font-family="Times,serif" font-size="14.00">home_team_id</text>
</g>
<!-- Team&#45;&gt;Match -->
<g id="edge3" class="edge"><title>Team&#45;&gt;Match</title>
<path fill="none" stroke="#d112c3" d="M451.219,-241.321C451.404,-237.83 451.563,-234.369 451.688,-231 451.918,-224.782 452.495,-223.17 451.688,-217 451.331,-214.273 450.929,-211.519 450.488,-208.748"/>
<ellipse fill="none" stroke="#d112c3" cx="450.977" cy="-245.497" rx="4" ry="4"/>
<polygon fill="#d112c3" stroke="#d112c3" points="450.447,-208.509 453.161,-197.884 449.587,-203.583 448.728,-198.658 448.728,-198.658 448.728,-198.658 449.587,-203.583 444.295,-199.431 450.447,-208.509 450.447,-208.509"/>
<text text-anchor="middle" x="492.505" y="-219.8" font-family="Times,serif" font-size="14.00">away_team_id</text>
</g>
<!-- GameType -->
<g id="node5" class="node"><title>GameType</title>
<path fill="none" stroke="black" d="M237.182,-387.5C237.182,-387.5 346.193,-387.5 346.193,-387.5 352.193,-387.5 358.193,-393.5 358.193,-399.5 358.193,-399.5 358.193,-461.5 358.193,-461.5 358.193,-467.5 352.193,-473.5 346.193,-473.5 346.193,-473.5 237.182,-473.5 237.182,-473.5 231.182,-473.5 225.182,-467.5 225.182,-461.5 225.182,-461.5 225.182,-399.5 225.182,-399.5 225.182,-393.5 231.182,-387.5 237.182,-387.5"/>
<text text-anchor="middle" x="291.688" y="-458.3" font-family="Times,serif" font-size="14.00">GameType</text>
<polyline fill="none" stroke="black" points="225.182,-451.5 358.193,-451.5 "/>
<text text-anchor="start" x="233.182" y="-436.3" font-family="Times,serif" font-size="14.00">id :INTEGER</text>
<text text-anchor="start" x="233.182" y="-422.3" font-family="Times,serif" font-size="14.00">name :varchar</text>
<text text-anchor="start" x="233.182" y="-408.3" font-family="Times,serif" font-size="14.00">created_at :datetime</text>
<text text-anchor="start" x="233.182" y="-394.3" font-family="Times,serif" font-size="14.00">updated_at :datetime</text>
</g>
<!-- GameType&#45;&gt;GameSubType -->
<g id="edge4" class="edge"><title>GameType&#45;&gt;GameSubType</title>
<path fill="none" stroke="#e95091" d="M291.688,-379.204C291.688,-372.809 291.688,-366.219 291.688,-359.701"/>
<ellipse fill="none" stroke="#e95091" cx="291.688" cy="-383.261" rx="4" ry="4"/>
<polygon fill="#e95091" stroke="#e95091" points="291.688,-359.557 296.188,-349.557 291.688,-354.557 291.688,-349.557 291.688,-349.557 291.688,-349.557 291.688,-354.557 287.188,-349.557 291.688,-359.557 291.688,-359.557"/>
</g>
<!-- ApplicationRecord -->
<g id="node6" class="node"><title>ApplicationRecord</title>
<ellipse fill="none" stroke="black" cx="453.688" cy="-430.5" rx="77.2916" ry="18"/>
<text text-anchor="middle" x="453.688" y="-426.3" font-family="Times,serif" font-size="14.00">ApplicationRecord</text>
</g>
<!-- Stadium -->
<g id="node7" class="node"><title>Stadium</title>
<path fill="none" stroke="black" d="M543.182,-249.5C543.182,-249.5 652.193,-249.5 652.193,-249.5 658.193,-249.5 664.193,-255.5 664.193,-261.5 664.193,-261.5 664.193,-337.5 664.193,-337.5 664.193,-343.5 658.193,-349.5 652.193,-349.5 652.193,-349.5 543.182,-349.5 543.182,-349.5 537.182,-349.5 531.182,-343.5 531.182,-337.5 531.182,-337.5 531.182,-261.5 531.182,-261.5 531.182,-255.5 537.182,-249.5 543.182,-249.5"/>
<text text-anchor="middle" x="597.688" y="-334.3" font-family="Times,serif" font-size="14.00">Stadium</text>
<polyline fill="none" stroke="black" points="531.182,-327.5 664.193,-327.5 "/>
<text text-anchor="start" x="539.182" y="-312.3" font-family="Times,serif" font-size="14.00">id :INTEGER</text>
<text text-anchor="start" x="539.182" y="-298.3" font-family="Times,serif" font-size="14.00">name :varchar</text>
<text text-anchor="start" x="539.182" y="-284.3" font-family="Times,serif" font-size="14.00">city :varchar</text>
<text text-anchor="start" x="539.182" y="-270.3" font-family="Times,serif" font-size="14.00">created_at :datetime</text>
<text text-anchor="start" x="539.182" y="-256.3" font-family="Times,serif" font-size="14.00">updated_at :datetime</text>
</g>
<!-- Stadium&#45;&gt;Match -->
<g id="edge5" class="edge"><title>Stadium&#45;&gt;Match</title>
<path fill="none" stroke="#2f1735" d="M558.512,-242.88C551.787,-234.044 544.701,-225.141 537.688,-217 529.569,-207.575 520.84,-197.997 511.942,-188.589"/>
<ellipse fill="none" stroke="#2f1735" cx="560.932" cy="-246.094" rx="4.00002" ry="4.00002"/>
<polygon fill="#2f1735" stroke="#2f1735" points="511.684,-188.319 508.032,-177.979 508.231,-184.703 504.777,-181.087 504.777,-181.087 504.777,-181.087 508.231,-184.703 501.523,-184.195 511.684,-188.319 511.684,-188.319"/>
</g>
</g>
</svg>
