<?xml version="1.0" encoding="UTF-8" standalone="no"?>
<!DOCTYPE svg PUBLIC "-//W3C//DTD SVG 1.1//EN"
 "http://www.w3.org/Graphics/SVG/1.1/DTD/svg11.dtd">
<!-- Generated by graphviz version 2.38.0 (20140413.2041)
 -->
<!-- Title: models_diagram Pages: 1 -->
<svg width="962pt" height="153pt"
 viewBox="0.00 0.00 962.27 153.00" xmlns="http://www.w3.org/2000/svg" xmlns:xlink="http://www.w3.org/1999/xlink">
<g id="graph0" class="graph" transform="scale(1 1) rotate(0) translate(4 149)">
<title>models_diagram</title>
<polygon fill="none" stroke="none" points="-4,4 -4,-149 958.274,-149 958.274,4 -4,4"/>
<!-- _diagram_info -->
<g id="node1" class="node"><title>_diagram_info</title>
<text text-anchor="start" x="8" y="-130.6" font-family="Times,serif" font-size="13.00">Models diagram</text>
<text text-anchor="start" x="8" y="-117.6" font-family="Times,serif" font-size="13.00">Date: Jan 23 2018 &#45; 12:50</text>
<text text-anchor="start" x="8" y="-104.6" font-family="Times,serif" font-size="13.00">Migration version: 20180123174359</text>
<text text-anchor="start" x="8" y="-91.6" font-family="Times,serif" font-size="13.00">Generated by RailRoady 1.5.3</text>
<text text-anchor="start" x="8" y="-78.6" font-family="Times,serif" font-size="13.00">http://railroady.prestonlee.com</text>
</g>
<!-- Match -->
<g id="node2" class="node"><title>Match</title>
<ellipse fill="none" stroke="black" cx="257.688" cy="-108.5" rx="32.8994" ry="18"/>
<text text-anchor="middle" x="257.688" y="-104.3" font-family="Times,serif" font-size="14.00">Match</text>
</g>
<!-- MatchType -->
<g id="node3" class="node"><title>MatchType</title>
<ellipse fill="none" stroke="black" cx="358.688" cy="-108.5" rx="50.0056" ry="18"/>
<text text-anchor="middle" x="358.688" y="-104.3" font-family="Times,serif" font-size="14.00">MatchType</text>
</g>
<!-- Group -->
<g id="node4" class="node"><title>Group</title>
<ellipse fill="none" stroke="black" cx="459.688" cy="-108.5" rx="32.9081" ry="18"/>
<text text-anchor="middle" x="459.688" y="-104.3" font-family="Times,serif" font-size="14.00">Group</text>
</g>
<!-- GameSubType -->
<g id="node5" class="node"><title>GameSubType</title>
<ellipse fill="none" stroke="black" cx="558.688" cy="-18" rx="62.5744" ry="18"/>
<text text-anchor="middle" x="558.688" y="-13.8" font-family="Times,serif" font-size="14.00">GameSubType</text>
</g>
<!-- Team -->
<g id="node6" class="node"><title>Team</title>
<ellipse fill="none" stroke="black" cx="654.688" cy="-108.5" rx="29.7411" ry="18"/>
<text text-anchor="middle" x="654.688" y="-104.3" font-family="Times,serif" font-size="14.00">Team</text>
</g>
<!-- GameType -->
<g id="node7" class="node"><title>GameType</title>
<ellipse fill="none" stroke="black" cx="558.688" cy="-108.5" rx="48.5518" ry="18"/>
<text text-anchor="middle" x="558.688" y="-104.3" font-family="Times,serif" font-size="14.00">GameType</text>
</g>
<!-- GameType&#45;&gt;GameSubType -->
<g id="edge1" class="edge"><title>GameType&#45;&gt;GameSubType</title>
<path fill="none" stroke="#120e40" d="M558.688,-82.189C558.688,-70.9711 558.688,-57.7517 558.688,-46.3113"/>
<ellipse fill="none" stroke="#120e40" cx="558.688" cy="-86.4363" rx="4" ry="4"/>
<polygon fill="#120e40" stroke="#120e40" points="558.688,-46.0113 563.188,-36.0113 558.688,-41.0113 558.688,-36.0113 558.688,-36.0113 558.688,-36.0113 558.688,-41.0113 554.188,-36.0113 558.688,-46.0113 558.688,-46.0113"/>
</g>
<!-- ApplicationRecord -->
<g id="node8" class="node"><title>ApplicationRecord</title>
<ellipse fill="none" stroke="black" cx="779.688" cy="-108.5" rx="77.2916" ry="18"/>
<text text-anchor="middle" x="779.688" y="-104.3" font-family="Times,serif" font-size="14.00">ApplicationRecord</text>
</g>
<!-- Stadium -->
<g id="node9" class="node"><title>Stadium</title>
<ellipse fill="none" stroke="black" cx="914.688" cy="-108.5" rx="39.6731" ry="18"/>
<text text-anchor="middle" x="914.688" y="-104.3" font-family="Times,serif" font-size="14.00">Stadium</text>
</g>
</g>
</svg>
