<?xml version="1.0" encoding="UTF-8" standalone="no"?>
<!DOCTYPE svg PUBLIC "-//W3C//DTD SVG 1.1//EN"
 "http://www.w3.org/Graphics/SVG/1.1/DTD/svg11.dtd">
<!-- Generated by graphviz version 2.38.0 (20140413.2041)
 -->
<!-- Title: models_diagram Pages: 1 -->
<svg width="557pt" height="240pt"
 viewBox="0.00 0.00 557.27 240.00" xmlns="http://www.w3.org/2000/svg" xmlns:xlink="http://www.w3.org/1999/xlink">
<g id="graph0" class="graph" transform="scale(1 1) rotate(0) translate(4 236)">
<title>models_diagram</title>
<polygon fill="none" stroke="none" points="-4,4 -4,-236 553.274,-236 553.274,4 -4,4"/>
<!-- _diagram_info -->
<g id="node1" class="node"><title>_diagram_info</title>
<text text-anchor="start" x="8" y="-217.6" font-family="Times,serif" font-size="13.00">Models diagram</text>
<text text-anchor="start" x="8" y="-204.6" font-family="Times,serif" font-size="13.00">Date: Jan 23 2018 &#45; 17:15</text>
<text text-anchor="start" x="8" y="-191.6" font-family="Times,serif" font-size="13.00">Migration version: 20180123221230</text>
<text text-anchor="start" x="8" y="-178.6" font-family="Times,serif" font-size="13.00">Generated by RailRoady 1.5.3</text>
<text text-anchor="start" x="8" y="-165.6" font-family="Times,serif" font-size="13.00">http://railroady.prestonlee.com</text>
</g>
<!-- Match -->
<g id="node2" class="node"><title>Match</title>
<ellipse fill="none" stroke="black" cx="359.688" cy="-18" rx="32.8994" ry="18"/>
<text text-anchor="middle" x="359.688" y="-13.8" font-family="Times,serif" font-size="14.00">Match</text>
</g>
<!-- GameSubType -->
<g id="node3" class="node"><title>GameSubType</title>
<ellipse fill="none" stroke="black" cx="273.688" cy="-104" rx="62.5744" ry="18"/>
<text text-anchor="middle" x="273.688" y="-99.8" font-family="Times,serif" font-size="14.00">GameSubType</text>
</g>
<!-- GameSubType&#45;&gt;Match -->
<g id="edge1" class="edge"><title>GameSubType&#45;&gt;Match</title>
<path fill="none" stroke="#06f386" d="M283.512,-78.2084C287.641,-69.8571 293.048,-60.9127 299.688,-54 307.018,-46.3683 316.373,-39.8562 325.503,-34.5928"/>
<ellipse fill="none" stroke="#06f386" cx="281.758" cy="-82.0046" rx="4.00002" ry="4.00002"/>
<polygon fill="#06f386" stroke="#06f386" points="325.675,-34.5002 336.612,-33.7105 330.075,-32.1254 334.475,-29.7505 334.475,-29.7505 334.475,-29.7505 330.075,-32.1254 332.337,-25.7905 325.675,-34.5002 325.675,-34.5002"/>
</g>
<!-- Team -->
<g id="node4" class="node"><title>Team</title>
<ellipse fill="none" stroke="black" cx="397.688" cy="-104" rx="29.7411" ry="18"/>
<text text-anchor="middle" x="397.688" y="-99.8" font-family="Times,serif" font-size="14.00">Team</text>
</g>
<!-- Team&#45;&gt;Match -->
<g id="edge2" class="edge"><title>Team&#45;&gt;Match</title>
<path fill="none" stroke="#70b8e1" d="M364.493,-92.152C340.231,-83.8901 310.977,-73.0965 307.488,-68 298.742,-55.2252 310.863,-43.2819 325.617,-34.3851"/>
<ellipse fill="none" stroke="#70b8e1" cx="368.365" cy="-93.4573" rx="4.00001" ry="4.00001"/>
<polygon fill="#70b8e1" stroke="#70b8e1" points="325.708,-34.3351 336.639,-33.4585 330.089,-31.9254 334.47,-29.5156 334.47,-29.5156 334.47,-29.5156 330.089,-31.9254 332.301,-25.5727 325.708,-34.3351 325.708,-34.3351"/>
<text text-anchor="middle" x="348.288" y="-56.8" font-family="Times,serif" font-size="14.00">home_team_id</text>
</g>
<!-- Team&#45;&gt;Match -->
<g id="edge3" class="edge"><title>Team&#45;&gt;Match</title>
<path fill="none" stroke="#cea5f9" d="M396.901,-77.7749C395.925,-69.8847 394.08,-61.3309 390.688,-54 388.623,-49.5385 385.801,-45.2292 382.694,-41.2496"/>
<ellipse fill="none" stroke="#cea5f9" cx="397.288" cy="-82.0035" rx="4" ry="4"/>
<polygon fill="#cea5f9" stroke="#cea5f9" points="382.617,-41.1607 379.473,-30.6553 379.344,-37.3809 376.071,-33.6012 376.071,-33.6012 376.071,-33.6012 379.344,-37.3809 372.669,-36.5471 382.617,-41.1607 382.617,-41.1607"/>
<text text-anchor="middle" x="435.505" y="-56.8" font-family="Times,serif" font-size="14.00">away_team_id</text>
</g>
<!-- GameType -->
<g id="node5" class="node"><title>GameType</title>
<ellipse fill="none" stroke="black" cx="273.688" cy="-195.5" rx="48.5518" ry="18"/>
<text text-anchor="middle" x="273.688" y="-191.3" font-family="Times,serif" font-size="14.00">GameType</text>
</g>
<!-- GameType&#45;&gt;GameSubType -->
<g id="edge4" class="edge"><title>GameType&#45;&gt;GameSubType</title>
<path fill="none" stroke="#a3681e" d="M273.688,-168.903C273.688,-157.441 273.688,-143.914 273.688,-132.263"/>
<ellipse fill="none" stroke="#a3681e" cx="273.688" cy="-173.243" rx="4" ry="4"/>
<polygon fill="#a3681e" stroke="#a3681e" points="273.688,-132.204 278.188,-122.203 273.688,-127.204 273.688,-122.204 273.688,-122.204 273.688,-122.204 273.688,-127.204 269.188,-122.204 273.688,-132.204 273.688,-132.204"/>
</g>
<!-- ApplicationRecord -->
<g id="node6" class="node"><title>ApplicationRecord</title>
<ellipse fill="none" stroke="black" cx="417.688" cy="-195.5" rx="77.2916" ry="18"/>
<text text-anchor="middle" x="417.688" y="-191.3" font-family="Times,serif" font-size="14.00">ApplicationRecord</text>
</g>
<!-- Stadium -->
<g id="node7" class="node"><title>Stadium</title>
<ellipse fill="none" stroke="black" cx="509.688" cy="-104" rx="39.6731" ry="18"/>
<text text-anchor="middle" x="509.688" y="-99.8" font-family="Times,serif" font-size="14.00">Stadium</text>
</g>
<!-- Stadium&#45;&gt;Match -->
<g id="edge5" class="edge"><title>Stadium&#45;&gt;Match</title>
<path fill="none" stroke="#0cfa53" d="M499.845,-78.5219C495.209,-69.6848 488.869,-60.3366 480.688,-54 458.046,-36.4646 426.906,-27.7108 401.886,-23.3428"/>
<ellipse fill="none" stroke="#0cfa53" cx="501.599" cy="-82.147" rx="4.00002" ry="4.00002"/>
<polygon fill="#0cfa53" stroke="#0cfa53" points="401.81,-23.3309 392.631,-17.3304 396.871,-22.5532 391.932,-21.7756 391.932,-21.7756 391.932,-21.7756 396.871,-22.5532 391.232,-26.2209 401.81,-23.3309 401.81,-23.3309"/>
</g>
</g>
</svg>
